<svg width="110" height="153" viewBox="0 0 110 153" fill="none" xmlns="http://www.w3.org/2000/svg">
<g clip-path="url(#clip0_0_4)">
<path d="M61.3321 153L41.7731 152.459L40.3369 140.728C32.692 138.347 21.6367 136.081 18.2362 129.563C13.7895 117.787 10.2162 106.359 10.2804 93.2683L104.897 91.1255C105.454 103.283 104.186 116.329 98.2587 126.909C95.3616 129.85 92.7458 133.452 89.0295 135.426C84.0201 138.089 78.374 139.379 73.1474 141.185L72.9845 152.509L61.3321 152.995V153Z" fill="white"/>
<path d="M39.799 87.4548L11.8795 88.0252C6.32717 82.7871 2.62069 76.4132 0 69.5134C2.11728 64.1613 9.08605 54.0274 11.1441 56.3786L17.1307 63.2188L24.4894 52.5592C26.7054 51.0661 30.7425 49.8905 33.4027 49.3499C36.4281 51.4084 36.7144 55.1683 37.1092 58.6851L49.9758 54.7863C56.5991 62.5095 55.2764 65.9222 50.6174 74.9548L39.7941 87.4548H39.799Z" fill="white"/>
<path d="M79.4006 59.1763L75.7583 54.8112L76.6467 42.2716C77.4215 31.3243 85.0566 22.9017 92.7607 15.3224L102.863 11.2351C112.428 29.1219 102.306 40.9026 89.2418 52.8618C86.3447 55.5106 83.3835 57.1078 79.4056 59.1812L79.4006 59.1763Z" fill="white"/>
<path d="M90.6089 87.3408L73.4091 87.9658L74.2283 76.0462C79.7412 69.583 85.3428 63.5959 91.5269 57.5444C97.5826 55.2626 103.382 53.2388 109.995 51.6565C109.615 57.2616 109.531 62.2368 108.564 67.4451C107.597 72.6534 105.425 77.4897 103.179 82.2019C99.6259 85.317 95.5245 87.1622 90.604 87.3408H90.6089Z" fill="white"/>
<path d="M57.0334 41.3886L49.2898 46.6961C48.5445 46.0463 47.5278 44.9055 47.3255 44.345C49.428 42.0285 51.0764 40.3718 52.7297 37.8222L45.4895 42.8618L42.6566 40.4164L53.0851 29.8956C53.9636 29.0077 55.8588 28.4125 57.0383 28.3877L63.9232 28.2389L87.5687 0L91.5762 3.95831L67.911 32.5097C67.7185 35.9075 68.138 39.6872 67.3731 42.8221C65.3989 47.2616 62.3044 50.8578 59.1161 54.7268C57.8922 54.1762 56.8409 53.3082 55.8785 52.3062L61.6924 43.343L53.5145 49.831C52.9222 50.0245 51.4317 48.6009 51.7081 48.0106L57.0334 41.3886Z" fill="white"/>
<path d="M18.2807 29.3798C24.2772 30.4463 24.4944 39.5087 21.2963 45.2577C20.3388 46.9739 18.3449 48.596 16.8643 50.1584C10.8776 47.0979 6.5493 42.3758 3.88913 36.5276C2.8675 34.2855 3.03037 31.6566 2.90698 28.8937C4.28396 28.859 6.35682 28.9532 7.54625 29.3004L16.4003 39.6377C16.6027 36.106 17.0173 32.981 18.2857 29.3848L18.2807 29.3798Z" fill="white"/>
<path d="M67.4964 83.7842C65.7492 86.8993 59.3727 87.6483 57.8526 86.9241L53.3466 84.7812C53.1097 82.435 52.7247 79.7366 53.5884 77.4152C54.0573 76.1652 56.1943 74.0868 57.4035 73.5362C59.7824 72.4599 62.788 72.6186 65.0682 73.7049C67.0917 74.6672 69.3669 80.441 67.4964 83.7842Z" fill="white"/>
<path d="M67.8665 69.702L61.9144 65.2874C60.5325 64.2606 60.498 61.1555 60.5523 59.5186L64.2045 55.8182C65.157 54.8509 68.2317 54.5484 69.4557 55.223C71.3805 56.2795 72.6983 57.5791 74.1197 59.1069C76.1086 61.2348 76.1777 64.7864 73.4929 66.3737L67.8616 69.702H67.8665Z" fill="white"/>
<path d="M38.417 44.8013C34.7402 45.6148 30.3279 44.3202 28.7387 40.6793C27.6431 38.1694 29.0595 34.0226 31.4039 32.5147C32.8549 31.5822 36.0925 31.6814 37.4991 32.3808C40.8354 35.6942 40.9785 40.6694 38.417 44.8013Z" fill="white"/>
</g>
<defs>
<clipPath id="clip0_0_4">
<rect width="110" height="153" fill="white"/>
</clipPath>
</defs>
</svg>
